<svg width="16" height="16" viewBox="0 0 16 16" fill="none" xmlns="http://www.w3.org/2000/svg">
<path d="M14.0034 2.00001C13.5534 1.55001 12.9567 1.30334 12.32 1.30334C11.6834 1.30334 11.0867 1.55001 10.6367 2.00001L2.04335 10.5933C1.91335 10.7233 1.82668 10.8967 1.79668 11.08L1.40668 13.7233C1.37002 13.9667 1.45002 14.2033 1.62335 14.3767C1.77002 14.5233 1.96002 14.6 2.16335 14.6C2.20002 14.6 2.24002 14.6 2.27668 14.59L4.92002 14.2C5.10335 14.1733 5.27668 14.0867 5.40668 13.9567L14 5.36334C14.9267 4.43668 14.9267 2.92668 14 1.99668L14.0034 2.00001ZM4.79668 13.3467L2.28668 13.7167L2.65668 11.2067L10.33 3.53334L12.47 5.67334L4.79668 13.3467ZM13.39 4.75334L13.08 5.06334L10.94 2.92334L11.25 2.61334C11.5367 2.32668 11.9167 2.17001 12.32 2.17001C12.7234 2.17001 13.1034 2.32668 13.39 2.61334C13.6767 2.90001 13.8334 3.28001 13.8334 3.68334C13.8334 4.08668 13.6767 4.46668 13.39 4.75334Z" fill="white"/>
</svg>
