<svg width="16" height="16" viewBox="0 0 16 16" fill="none" xmlns="http://www.w3.org/2000/svg">
<path d="M13.5567 4.02301H10.7667C10.72 2.53968 9.50334 1.34634 8.00668 1.34634C6.51001 1.34634 5.29334 2.53968 5.25001 4.02301H2.44334C2.20334 4.02301 2.01001 4.21634 2.01001 4.45634C2.01001 4.69634 2.20334 4.88968 2.44334 4.88968H3.33668V12.5163C3.33668 13.7097 4.20334 14.6797 5.27001 14.6797H10.7533C11.82 14.6797 12.6867 13.7097 12.6867 12.5163V4.88968H13.5533C13.7933 4.88968 13.9867 4.69634 13.9867 4.45634C13.9867 4.21634 13.7933 4.02301 13.5533 4.02301H13.5567ZM8.00668 2.21301C9.02334 2.21301 9.85334 3.01968 9.89668 4.02301H6.11334C6.15668 3.01634 6.98668 2.21301 8.00334 2.21301H8.00668ZM11.82 12.5163C11.82 13.233 11.3433 13.813 10.7533 13.813H5.27334C4.68668 13.813 4.20668 13.2297 4.20668 12.5163V4.88968H11.82V12.5163Z" fill="white"/>
<path d="M8.01333 12.0133C8.25333 12.0133 8.44667 11.82 8.44667 11.58V7.09999C8.44667 6.85999 8.25333 6.66666 8.01333 6.66666C7.77333 6.66666 7.58 6.85999 7.58 7.09999V11.58C7.58 11.82 7.77333 12.0133 8.01333 12.0133Z" fill="white"/>
<path d="M10.3367 12.0133C10.5767 12.0133 10.77 11.82 10.77 11.58V7.09999C10.77 6.85999 10.5767 6.66666 10.3367 6.66666C10.0967 6.66666 9.90333 6.85999 9.90333 7.09999V11.58C9.90333 11.82 10.0967 12.0133 10.3367 12.0133Z" fill="white"/>
<path d="M5.67667 12.0133C5.91667 12.0133 6.11 11.82 6.11 11.58V7.09999C6.11 6.85999 5.91667 6.66666 5.67667 6.66666C5.43667 6.66666 5.24333 6.85999 5.24333 7.09999V11.58C5.24333 11.82 5.43667 12.0133 5.67667 12.0133Z" fill="white"/>
</svg>
