<svg width="32" height="32" viewBox="0 0 32 32" fill="none" xmlns="http://www.w3.org/2000/svg">
<rect width="32" height="32" rx="4" fill="white"/>
<rect x="0.5" y="0.5" width="31" height="31" rx="3.5" stroke="black" stroke-opacity="0.1"/>
<path d="M22.5367 15.5771C22.3667 15.4071 22.0933 15.4071 21.9233 15.5771L20.8333 16.6671V16.0071C20.8333 12.8371 18.2567 10.2604 15.0833 10.2604C11.91 10.2604 9.33667 12.8404 9.33667 16.0071C9.33667 19.1738 11.9133 21.7538 15.0833 21.7538C15.3233 21.7538 15.5167 21.5604 15.5167 21.3204C15.5167 21.0804 15.3233 20.8871 15.0833 20.8871C12.3933 20.8871 10.2033 18.6971 10.2033 16.0071C10.2033 13.3171 12.3933 11.1271 15.0867 11.1271C17.78 11.1271 19.9667 13.3171 19.9667 16.0071V16.7204L18.8167 15.5704C18.6467 15.4004 18.3733 15.4004 18.2033 15.5704C18.0333 15.7404 18.0333 16.0138 18.2033 16.1838L20.0667 18.0471C20.15 18.1304 20.2633 18.1738 20.3733 18.1738C20.3767 18.1738 20.3833 18.1738 20.3867 18.1738C20.39 18.1738 20.3933 18.1738 20.4 18.1738C20.5533 18.1738 20.6833 18.0871 20.76 17.9671L22.5367 16.1904C22.7067 16.0204 22.7067 15.7471 22.5367 15.5771Z" fill="#585858"/>
</svg>
