<svg width="27" height="17" viewBox="0 0 27 17" fill="none" xmlns="http://www.w3.org/2000/svg">
<path d="M25.3079 2.83147L22.4023 0.559552C21.9439 0.202248 21.3708 0 20.7843 0H12.1483C11.0629 0 10.018 0.397754 9.21575 1.12584L4.94832 4.97529H4.40225C3.06068 4.97529 1.80674 5.57529 0.970788 6.62024C0.343821 7.39552 0 8.37979 0 9.37755V11.3596C0 11.9933 0.283147 12.5798 0.775282 12.9776L1.61124 13.6517C1.98203 13.9483 2.44045 14.1101 2.91911 14.1101H2.98652C3.51911 15.3573 4.75956 16.2337 6.19552 16.2337C7.63147 16.2337 8.75058 15.4247 9.32361 14.2652H17.7304C18.2967 15.4247 19.4764 16.2337 20.8585 16.2337C22.2405 16.2337 23.4809 15.391 24.0338 14.1776C24.3439 14.0899 24.627 13.9416 24.8697 13.7191L26.3259 12.3843C26.7573 11.9933 27 11.4337 27 10.854V6.26967C27 4.90787 26.3866 3.65394 25.3147 2.81798L25.3079 2.83147ZM20.0158 3.71461C20.2113 4.11237 20.0562 4.4427 19.9821 4.57079C19.9079 4.69888 19.6787 4.98877 19.2337 4.98877H16.4023V1.7663H19.0382L20.0225 3.71461H20.0158ZM10.3888 2.44045C10.8742 2.00225 11.5011 1.7663 12.1483 1.7663H14.6427V4.98877H7.56406L10.3888 2.44045ZM6.19552 14.5012C5.23821 14.5012 4.45619 13.7191 4.45619 12.7618C4.45619 11.8045 5.23821 11.0225 6.19552 11.0225C7.15282 11.0225 7.93485 11.8045 7.93485 12.7618C7.93485 13.7191 7.15282 14.5012 6.19552 14.5012ZM19.1124 12.7618C19.1124 11.8045 19.8944 11.0225 20.8517 11.0225C21.809 11.0225 22.5911 11.8045 22.5911 12.7618C22.5911 13.7191 21.809 14.5012 20.8517 14.5012C19.8944 14.5012 19.1124 13.7191 19.1124 12.7618ZM25.1326 11.1101L24.2293 11.9326C23.8585 10.409 22.4899 9.26294 20.845 9.26294C18.9978 9.26294 17.4944 10.7124 17.3798 12.5259H9.66069C9.53934 10.7056 8.04271 9.26294 6.19552 9.26294C4.34832 9.26294 2.9663 10.5978 2.75057 12.3169C2.73708 12.3101 2.7236 12.3034 2.71012 12.2967L1.87416 11.6225C1.8 11.5618 1.75281 11.4674 1.75281 11.3663V9.38429C1.75281 9.26968 1.7663 9.15507 1.77978 9.04047H3.18203C3.66742 9.04047 4.05843 8.64945 4.05843 8.16406C4.05843 7.67867 3.66742 7.28765 3.18203 7.28765H2.78427C3.2427 6.93709 3.80225 6.73484 4.39551 6.73484H19.2203C20.1371 6.73484 20.9798 6.26967 21.4585 5.48765C21.9371 4.70563 21.9843 3.74832 21.5663 2.92585L21 1.8C21.1146 1.83371 21.2225 1.87416 21.3101 1.94832L24.2158 4.22023C24.8562 4.71911 25.227 5.47417 25.227 6.2899V6.6135H23.7439C23.2585 6.6135 22.8675 7.00451 22.8675 7.4899C22.8675 7.9753 23.2585 8.36631 23.7439 8.36631H25.227V10.8674C25.227 10.9618 25.1866 11.0495 25.1191 11.1101H25.1326Z" fill="#C2C2C2"/>
</svg>
