<svg width="27" height="27" viewBox="0 0 27 27" fill="none" xmlns="http://www.w3.org/2000/svg">
<path d="M25.5962 14.1027L21.5794 17.1372V10.4828L26.6526 6.64765C27.0361 6.35833 27.1168 5.8066 26.8208 5.42308C26.5314 5.03956 25.9797 4.95882 25.5962 5.25487L21.5794 8.28937V2.62407C21.5794 1.17747 20.4019 0 18.9553 0H8.05529C6.60869 0 5.43122 1.17747 5.43122 2.62407V8.30283L1.40091 5.25487C1.01739 4.96555 0.465667 5.03956 0.176346 5.42308C-0.112975 5.8066 -0.0389626 6.35833 0.344556 6.64765L5.43122 10.4896V17.1439L1.40091 14.096C1.01739 13.8067 0.465667 13.8807 0.176346 14.2642C-0.112975 14.6477 -0.0389626 15.1994 0.344556 15.4888L5.43122 19.3307V21.5578C5.43122 23.3879 6.35301 25.0767 7.90054 26.059C8.76177 26.6108 9.75084 26.9001 10.7736 26.9001H16.237C17.2597 26.9001 18.2488 26.6108 19.11 26.059C20.6576 25.07 21.5794 23.3879 21.5794 21.5578V19.3172L26.6526 15.482C27.0361 15.1927 27.1168 14.641 26.8208 14.2575C26.5314 13.8739 25.9797 13.7932 25.5962 14.0892V14.1027ZM7.1806 10.1195H8.6272V14.1229L7.1806 16.1549V10.1195ZM10.3766 5.38944H16.6407V13.8605C15.8871 14.1633 14.8375 14.4459 13.5457 14.4526H13.512C12.2067 14.4526 11.1436 14.1633 10.3833 13.8605V5.38944H10.3766ZM16.8762 3.63333L10.0402 3.61987L9.4077 1.74938H17.576L16.8762 3.63333ZM9.79121 15.5089C10.713 15.8723 11.9712 16.202 13.5053 16.202C13.5187 16.202 13.5322 16.202 13.5457 16.202C15.0595 16.202 16.3043 15.8655 17.2194 15.5089L19.3994 18.5704C18.121 19.1423 16.1294 19.7815 13.586 19.7949H13.5053C10.9216 19.7949 8.90307 19.149 7.61122 18.5704L9.79121 15.5089ZM18.3901 14.1229V10.2742H19.8367V16.1549L18.3901 14.1229ZM19.83 8.5316H18.3834V4.58876L19.3859 1.88395C19.6483 2.0387 19.83 2.30784 19.83 2.6308V8.53833V8.5316ZM7.60449 1.89068L8.57338 4.77043C8.57338 4.77043 8.60702 4.83098 8.62047 4.86462V8.37012H7.17387V2.62407C7.17387 2.30784 7.34881 2.04543 7.59776 1.89068H7.60449ZM18.1748 24.599C17.5961 24.9691 16.93 25.1642 16.2437 25.1642H10.7803C10.094 25.1642 9.42788 24.9691 8.84924 24.599C7.81307 23.9396 7.18733 22.8025 7.18733 21.5712V20.2861C8.64739 20.9051 10.8072 21.5443 13.512 21.5443C13.5389 21.5443 13.5726 21.5443 13.5995 21.5443C16.2639 21.5308 18.3901 20.8984 19.8367 20.2861V21.5712C19.8367 22.8025 19.2177 23.9329 18.1748 24.599Z" fill="#C2C2C2"/>
</svg>
