<svg width="16" height="16" viewBox="0 0 16 16" fill="none" xmlns="http://www.w3.org/2000/svg">
<path d="M7.99992 7.98967C9.83659 7.98967 11.3333 6.493 11.3333 4.65633C11.3333 2.81966 9.83659 1.323 7.99992 1.323C6.16325 1.323 4.66659 2.81966 4.66659 4.65633C4.66659 6.493 6.16325 7.98967 7.99992 7.98967ZM7.99992 2.18966C9.35992 2.18966 10.4666 3.29633 10.4666 4.65633C10.4666 6.01633 9.35992 7.123 7.99992 7.123C6.63992 7.123 5.53325 6.01633 5.53325 4.65633C5.53325 3.29633 6.63992 2.18966 7.99992 2.18966Z" fill="white"/>
<path d="M10.6733 8.90055H5.3266C4.00326 8.90055 2.92993 9.97722 2.92993 11.2972V12.1805C2.92993 12.2872 2.98993 12.4139 3.06326 12.4939C4.3266 13.8806 6.1266 14.6739 8.00327 14.6739C9.87993 14.6739 11.6966 13.8706 12.9633 12.4672C13.0366 12.3872 13.0733 12.2739 13.0733 12.1672V11.2939C13.0733 9.97055 11.9966 8.89722 10.6766 8.89722L10.6733 8.90055ZM12.2066 12.0105C11.1133 13.1572 9.58993 13.8105 8.00327 13.8105C6.4166 13.8105 4.9066 13.1639 3.7966 12.0105V11.3006C3.7966 10.4572 4.48326 9.77055 5.3266 9.77055H10.6733C11.5166 9.77055 12.2033 10.4572 12.2033 11.3006V12.0139L12.2066 12.0105Z" fill="white"/>
</svg>
