<svg width="32" height="32" viewBox="0 0 32 32" fill="none" xmlns="http://www.w3.org/2000/svg">
<rect width="32" height="32" rx="4" fill="white"/>
<rect x="0.5" y="0.5" width="31" height="31" rx="3.5" stroke="black" stroke-opacity="0.1"/>
<path d="M22.0034 10C21.5534 9.55001 20.9567 9.30334 20.32 9.30334C19.6834 9.30334 19.0867 9.55001 18.6367 10L10.0434 18.5933C9.91335 18.7233 9.82668 18.8967 9.79668 19.08L9.40668 21.7233C9.37002 21.9667 9.45002 22.2033 9.62335 22.3767C9.77002 22.5233 9.96002 22.6 10.1634 22.6C10.2 22.6 10.24 22.6 10.2767 22.59L12.92 22.2C13.1034 22.1733 13.2767 22.0867 13.4067 21.9567L22 13.3633C22.9267 12.4367 22.9267 10.9267 22 9.99668L22.0034 10ZM12.7967 21.3467L10.2867 21.7167L10.6567 19.2067L18.33 11.5333L20.47 13.6733L12.7967 21.3467ZM21.39 12.7533L21.08 13.0633L18.94 10.9233L19.25 10.6133C19.5367 10.3267 19.9167 10.17 20.32 10.17C20.7234 10.17 21.1034 10.3267 21.39 10.6133C21.6767 10.9 21.8334 11.28 21.8334 11.6833C21.8334 12.0867 21.6767 12.4667 21.39 12.7533Z" fill="#585858"/>
</svg>
