<svg width="16" height="16" viewBox="0 0 16 16" fill="none" xmlns="http://www.w3.org/2000/svg">
<path d="M13.5567 4.02286H10.7667C10.72 2.53952 9.50334 1.34619 8.00668 1.34619C6.51001 1.34619 5.29334 2.53952 5.25001 4.02286H2.44334C2.20334 4.02286 2.01001 4.21619 2.01001 4.45619C2.01001 4.69619 2.20334 4.88952 2.44334 4.88952H3.33668V12.5162C3.33668 13.7095 4.20334 14.6795 5.27001 14.6795H10.7533C11.82 14.6795 12.6867 13.7095 12.6867 12.5162V4.88952H13.5533C13.7933 4.88952 13.9867 4.69619 13.9867 4.45619C13.9867 4.21619 13.7933 4.02286 13.5533 4.02286H13.5567ZM8.00668 2.21286C9.02334 2.21286 9.85334 3.01952 9.89668 4.02286H6.11334C6.15668 3.01619 6.98668 2.21286 8.00334 2.21286H8.00668ZM11.82 12.5162C11.82 13.2329 11.3433 13.8129 10.7533 13.8129H5.27334C4.68668 13.8129 4.20668 13.2295 4.20668 12.5162V4.88952H11.82V12.5162Z" fill="#FF8979"/>
<path d="M8.01333 12.0132C8.25333 12.0132 8.44667 11.8198 8.44667 11.5798V7.09984C8.44667 6.85984 8.25333 6.6665 8.01333 6.6665C7.77333 6.6665 7.58 6.85984 7.58 7.09984V11.5798C7.58 11.8198 7.77333 12.0132 8.01333 12.0132Z" fill="#FF8979"/>
<path d="M10.3367 12.0132C10.5767 12.0132 10.77 11.8198 10.77 11.5798V7.09984C10.77 6.85984 10.5767 6.6665 10.3367 6.6665C10.0967 6.6665 9.90333 6.85984 9.90333 7.09984V11.5798C9.90333 11.8198 10.0967 12.0132 10.3367 12.0132Z" fill="#FF8979"/>
<path d="M5.67667 12.0132C5.91667 12.0132 6.11 11.8198 6.11 11.5798V7.09984C6.11 6.85984 5.91667 6.6665 5.67667 6.6665C5.43667 6.6665 5.24333 6.85984 5.24333 7.09984V11.5798C5.24333 11.8198 5.43667 12.0132 5.67667 12.0132Z" fill="#FF8979"/>
</svg>
