<svg width="27" height="17" viewBox="0 0 27 17" fill="none" xmlns="http://www.w3.org/2000/svg">
<path d="M26.0357 6.62187C25.1928 5.57667 23.9453 4.97652 22.5966 4.97652H22.0504L17.782 1.12612C16.9728 0.397852 15.9343 0 14.8486 0H6.21053C5.62387 0 5.05069 0.195554 4.59215 0.55969L1.68581 2.83216C0.613636 3.66833 0 4.92932 0 6.28471V10.8701C0 11.45 0.242757 12.0097 0.674325 12.4008L2.13087 13.736C2.37362 13.9585 2.65684 14.1069 2.96703 14.1945C3.51998 15.4016 4.72702 16.2512 6.1431 16.2512C7.55918 16.2512 8.69879 15.442 9.27197 14.2822H17.6741C18.2405 15.442 19.4206 16.2512 20.8029 16.2512C22.1853 16.2512 23.4867 15.3746 24.0127 14.1271H24.0801C24.5522 14.1271 25.0175 13.9653 25.3883 13.6686L26.2245 12.9942C26.7168 12.5964 27 12.0097 27 11.3759V9.39335C27 8.39535 26.6561 7.41757 26.0289 6.63536L26.0357 6.62187ZM16.6086 2.42757L19.434 4.97652H12.3536V1.75325H14.8486C15.5027 1.75325 16.1231 1.996 16.6086 2.42757ZM6.97926 3.70204L7.96378 1.75325H10.6004V4.97652H7.76822C7.32317 4.97652 7.10064 4.68656 7.01972 4.55844C6.94555 4.43031 6.78371 4.0999 6.98601 3.70204H6.97926ZM4.40334 12.7515C4.40334 11.7939 5.18556 11.0117 6.1431 11.0117C7.10064 11.0117 7.88286 11.7939 7.88286 12.7515C7.88286 13.709 7.10064 14.4912 6.1431 14.4912C5.18556 14.4912 4.40334 13.709 4.40334 12.7515ZM22.5359 12.7515C22.5359 13.709 21.7537 14.4912 20.7962 14.4912C19.8386 14.4912 19.0564 13.709 19.0564 12.7515C19.0564 11.7939 19.8386 11.0117 20.7962 11.0117C21.7537 11.0117 22.5359 11.7939 22.5359 12.7515ZM25.2467 11.3556C25.2467 11.4568 25.1995 11.5512 25.1254 11.6119L24.2892 12.2862C24.2892 12.2862 24.2622 12.2997 24.2487 12.3064C24.0329 10.5869 22.5764 9.25174 20.8029 9.25174C19.0295 9.25174 17.4515 10.7015 17.3369 12.5155H9.61588C9.4945 10.6948 7.9975 9.25174 6.14985 9.25174C4.51123 9.25174 3.14235 10.3913 2.76473 11.9221L1.86114 11.0926C1.7937 11.032 1.75325 10.9443 1.75325 10.8499V8.34814H3.23676C3.72227 8.34814 4.11338 7.95704 4.11338 7.47152C4.11338 6.98601 3.72227 6.5949 3.23676 6.5949H1.75325V6.27122C1.75325 5.45529 2.12412 4.70005 2.76473 4.20104L5.67107 1.92857C5.76548 1.85439 5.87337 1.81393 5.98126 1.78022L5.41483 2.90634C5.00349 3.72902 5.04395 4.68656 5.52272 5.46878C6.00824 6.25099 6.8444 6.71628 7.76148 6.71628H22.5899C23.1833 6.71628 23.743 6.91183 24.2015 7.26922H23.8037C23.3182 7.26922 22.9271 7.66033 22.9271 8.14585C22.9271 8.63136 23.3182 9.02247 23.8037 9.02247H25.2063C25.2198 9.1371 25.2332 9.25174 25.2332 9.36637V11.3489L25.2467 11.3556Z" fill="white"/>
</svg>
