<svg width="27" height="24" viewBox="0 0 27 24" fill="none" xmlns="http://www.w3.org/2000/svg">
<path d="M15.9644 14.4014H10.7586C10.2781 14.4014 9.89101 14.7885 9.89101 15.269C9.89101 15.7495 10.2781 16.1366 10.7586 16.1366H15.9644C16.4449 16.1366 16.832 15.7495 16.832 15.269C16.832 14.7885 16.4449 14.4014 15.9644 14.4014Z" fill="#C2C2C2"/>
<path d="M22.792 13.2668C22.792 12.7863 22.4049 12.3992 21.9243 12.3992H19.4216C18.941 12.3992 18.5539 12.7863 18.5539 13.2668C18.5539 13.7473 18.941 14.1344 19.4216 14.1344H21.9243C22.4049 14.1344 22.792 13.7473 22.792 13.2668Z" fill="#C2C2C2"/>
<path d="M7.19457 12.3992H4.79858C4.31805 12.3992 3.93095 12.7863 3.93095 13.2668C3.93095 13.7473 4.31805 14.1344 4.79858 14.1344H7.19457C7.67511 14.1344 8.0622 13.7473 8.0622 13.2668C8.0622 12.7863 7.67511 12.3992 7.19457 12.3992Z" fill="#C2C2C2"/>
<path d="M23.9599 6.65405C23.7864 6.65405 23.6195 6.70744 23.4794 6.80087L22.6985 7.31478L21.1902 2.62958C20.9299 1.82869 20.3025 1.20133 19.5016 0.947718C17.5261 0.320355 15.4638 0 13.3548 0H13.3481C11.2458 0 9.17684 0.320355 7.20799 0.947718C6.4071 1.20133 5.77307 1.83537 5.51945 2.62958L4.00444 7.32813L3.2169 6.80087C3.07674 6.70744 2.90989 6.65405 2.73637 6.65405H0.867629C0.387096 6.65405 0 7.04114 0 7.52167C0 8.00221 0.387096 8.3893 0.867629 8.3893H2.47608L3.01 8.74303C2.00222 9.53724 1.35484 10.7653 1.35484 12.1468V21.3971C1.35484 22.832 2.5228 23.9999 3.95772 23.9999H4.93214C6.36706 23.9999 7.53502 22.832 7.53502 21.3971V19.5083H19.1479V21.3971C19.1479 22.832 20.3159 23.9999 21.7508 23.9999H22.7452C24.1801 23.9999 25.3481 22.832 25.3481 21.3971V12.1468C25.3481 10.7653 24.7007 9.53724 23.6929 8.74303L24.2269 8.3893H25.8353C26.3158 8.3893 26.7029 8.00221 26.7029 7.52167C26.7029 7.04114 26.3158 6.65405 25.8353 6.65405H23.9599ZM7.17462 3.16351C7.26139 2.88987 7.46828 2.68965 7.74192 2.60289C9.54392 2.02892 11.426 1.73526 13.3548 1.73526H13.3615C15.2903 1.73526 17.179 2.02892 18.981 2.60289C19.248 2.68965 19.4616 2.89654 19.5483 3.16351L21.0433 7.81533C21.0433 7.81533 21.0233 7.81533 21.01 7.81533H5.68631C5.68631 7.81533 5.67963 7.81533 5.67296 7.81533L7.17462 3.16351ZM5.79976 21.4037C5.79976 21.8843 5.41267 22.2714 4.93214 22.2714H3.95772C3.47719 22.2714 3.09009 21.8843 3.09009 21.4037V19.515H5.79976V21.4037ZM3.09009 17.773V12.1468C3.09009 10.7119 4.25805 9.54392 5.69298 9.54392H21.01C22.4449 9.54392 23.6129 10.7119 23.6129 12.1468V17.773H3.09009ZM22.7385 22.2714H21.7441C21.2636 22.2714 20.8765 21.8843 20.8765 21.4037V19.515H23.6062V21.4037C23.6062 21.8843 23.2191 22.2714 22.7385 22.2714Z" fill="#C2C2C2"/>
</svg>
