<svg width="22" height="23" viewBox="0 0 22 23" fill="none" xmlns="http://www.w3.org/2000/svg">
<path d="M20.4956 6.04444L11.8587 0.426428C11.4323 0.148911 10.9314 0 10.4238 0H0.87993C0.392585 0 0 0.392584 0 0.87993C0 1.36728 0.392585 1.75986 0.87993 1.75986H5.34727C5.59094 1.75986 5.82784 1.86139 5.99706 2.04414L8.17658 4.41996C8.53532 4.81254 8.38641 5.24574 8.33226 5.36757C8.27811 5.48941 8.06151 5.89553 7.52678 5.89553H0.87993C0.392585 5.89553 0 6.28811 0 6.77546C0 7.26281 0.392585 7.65539 0.87993 7.65539H7.52678C8.58947 7.65539 9.51678 7.05298 9.94321 6.07828C10.3696 5.10359 10.1869 4.01383 9.4694 3.22867L8.12243 1.75986H10.4238C10.593 1.75986 10.7622 1.80724 10.9044 1.902L19.548 7.52002C19.7984 7.68247 19.9473 7.95998 19.9473 8.2578V9.00236H16.3464C15.859 9.00236 15.4665 9.39494 15.4665 9.88229C15.4665 10.3696 15.859 10.7622 16.3464 10.7622H19.9473V13.9029L17.4091 16.2178H14.4985C13.7269 14.6678 12.1295 13.5915 10.2816 13.5915C8.43379 13.5915 6.83638 14.6678 6.06475 16.2178H0.87993C0.392585 16.2178 0 16.6104 0 17.0977C0 17.5851 0.392585 17.9776 0.87993 17.9776H5.59094C5.58417 18.0859 5.5774 18.1875 5.5774 18.2958C5.5774 20.8882 7.68923 23 10.2816 23C12.8741 23 14.9859 20.8882 14.9859 18.2958C14.9859 18.1875 14.9791 18.0859 14.9723 17.9776H17.7543C17.9709 17.9776 18.1875 17.8964 18.3499 17.7475L21.4229 14.9385C21.6057 14.7693 21.7072 14.5391 21.7072 14.2887V8.25104C21.7072 7.3508 21.2605 6.52502 20.5091 6.03767L20.4956 6.04444ZM10.2749 21.2402C8.65039 21.2402 7.33049 19.9203 7.33049 18.2958C7.33049 16.6713 8.65039 15.3514 10.2749 15.3514C11.8994 15.3514 13.2193 16.6713 13.2193 18.2958C13.2193 19.9203 11.8994 21.2402 10.2749 21.2402Z" fill="#C2C2C2"/>
</svg>
