<svg width="18" height="18" viewBox="0 0 18 18" fill="none" xmlns="http://www.w3.org/2000/svg">
<path d="M9.95709 9L17.8011 1.15605C18.0663 0.890768 18.0663 0.46424 17.8011 0.19896C17.5358 -0.0663199 17.1092 -0.0663199 16.844 0.19896L9 8.04292L1.15605 0.19896C0.890768 -0.0663199 0.46424 -0.0663199 0.19896 0.19896C-0.0663199 0.46424 -0.0663199 0.890768 0.19896 1.15605L8.04292 9L0.19896 16.844C-0.0663199 17.1092 -0.0663199 17.5358 0.19896 17.8011C0.328999 17.9311 0.505852 17.9987 0.677504 17.9987C0.849155 17.9987 1.02601 17.9311 1.15605 17.8011L9 9.95709L16.8232 17.7802C16.9532 17.9103 17.13 17.9779 17.3017 17.9779C17.4734 17.9779 17.6502 17.9103 17.7802 17.7802C18.0455 17.515 18.0455 17.0884 17.7802 16.8232L9.95709 9Z" fill="white"/>
</svg>
