<svg width="40" height="32" viewBox="0 0 40 32" fill="none" xmlns="http://www.w3.org/2000/svg">
<rect width="40" height="32" rx="4" fill="white"/>
<rect x="0.5" y="0.5" width="39" height="31" rx="3.5" stroke="black" stroke-opacity="0.1"/>
<path d="M22.2167 17.2761C21.9767 17.2761 21.7833 17.4694 21.7833 17.7094V20.4427C21.7833 21.1594 21.2 21.7427 20.4833 21.7427H11.4833C10.7667 21.7427 10.1833 21.1594 10.1833 20.4427V17.7094C10.1833 17.4694 9.98998 17.2761 9.74998 17.2761C9.50998 17.2761 9.31665 17.4694 9.31665 17.7094V20.4427C9.31665 21.6361 10.29 22.6094 11.4833 22.6094H20.4833C21.6767 22.6094 22.65 21.6361 22.65 20.4427V17.7094C22.65 17.4694 22.4567 17.2761 22.2167 17.2761Z" fill="#585858"/>
<path d="M15.4433 19.9133C15.5933 20.0633 15.79 20.1367 15.9867 20.1367C16.1833 20.1367 16.38 20.0633 16.53 19.9133L19.8567 16.5867C20.0267 16.4167 20.0267 16.1433 19.8567 15.9733C19.6867 15.8033 19.4133 15.8033 19.2433 15.9733L16.42 18.7967V10.0467C16.42 9.80668 16.2267 9.61334 15.9867 9.61334C15.7467 9.61334 15.5533 9.80668 15.5533 10.0467V18.7967L12.73 15.9733C12.56 15.8033 12.2867 15.8033 12.1167 15.9733C11.9467 16.1433 11.9467 16.4167 12.1167 16.5867L15.4433 19.9133Z" fill="#585858"/>
</svg>
