<svg width="24" height="24" viewBox="0 0 24 24" fill="none" xmlns="http://www.w3.org/2000/svg">
<path d="M21.0048 3.00002C20.3298 2.32502 19.4348 1.95502 18.4798 1.95502C17.5248 1.95502 16.6298 2.32502 15.9548 3.00002L3.06478 15.89C2.86978 16.085 2.73978 16.345 2.69478 16.62L2.10978 20.585C2.05478 20.95 2.17478 21.305 2.43478 21.565C2.65478 21.785 2.93978 21.9 3.24478 21.9C3.29978 21.9 3.35978 21.9 3.41478 21.885L7.37978 21.3C7.65478 21.26 7.91478 21.13 8.10978 20.935L20.9998 8.04502C22.3898 6.65502 22.3898 4.39002 20.9998 2.99502L21.0048 3.00002ZM7.19478 20.02L3.42978 20.575L3.98478 16.81L15.4948 5.30002L18.7048 8.51002L7.19478 20.02ZM20.0848 7.13002L19.6198 7.59502L16.4098 4.38502L16.8748 3.92002C17.3048 3.49002 17.8748 3.25502 18.4798 3.25502C19.0848 3.25502 19.6548 3.49002 20.0848 3.92002C20.5148 4.35002 20.7498 4.92002 20.7498 5.52502C20.7498 6.13002 20.5148 6.70002 20.0848 7.13002Z" fill="white"/>
</svg>
