<svg width="16" height="16" viewBox="0 0 16 16" fill="none" xmlns="http://www.w3.org/2000/svg">
<path d="M11.4601 8.58291C9.6734 7.91624 8.08673 6.32291 7.42007 4.52291C7.30007 4.19957 7.0034 3.98957 6.6634 3.98957C6.3234 3.98957 6.02674 4.19957 5.91007 4.52624C5.2534 6.32291 3.66007 7.91291 1.85674 8.56957C1.53007 8.68957 1.32007 8.98624 1.32007 9.32624C1.32007 9.66624 1.53007 9.96291 1.8534 10.0829C3.64674 10.7429 5.22673 12.3329 5.88673 14.1296C6.00673 14.4562 6.3034 14.6662 6.6434 14.6662C6.9834 14.6662 7.28007 14.4562 7.40007 14.1296C8.06007 12.3329 9.65007 10.7496 11.4534 10.0962C11.7801 9.97957 11.9901 9.68291 11.9901 9.34291C11.9901 9.00291 11.7834 8.70624 11.4601 8.58291ZM6.6434 13.6796C5.89007 11.7629 4.2134 10.0796 2.3034 9.32291C4.22673 8.56624 5.91007 6.88624 6.66674 4.96957C7.42674 6.88624 9.10674 8.57291 11.0067 9.33291C9.08674 10.0829 7.40007 11.7596 6.6434 13.6762V13.6796Z" fill="white"/>
<path d="M14.3834 3.51666L13.1767 3.06999C13.0567 3.02666 12.9634 2.93332 12.9201 2.81332L12.4734 1.60666C12.3334 1.22999 11.8001 1.22999 11.6601 1.60666L11.2134 2.81332C11.1701 2.93332 11.0767 3.02666 10.9567 3.06999L9.75008 3.51666C9.37341 3.65666 9.37341 4.18999 9.75008 4.32999L10.9567 4.77666C11.0767 4.81999 11.1701 4.91332 11.2134 5.03332L11.6601 6.23999C11.8001 6.61666 12.3334 6.61666 12.4734 6.23999L12.9201 5.03332C12.9634 4.91332 13.0567 4.81999 13.1767 4.77666L14.3834 4.32999C14.7601 4.18999 14.7601 3.65666 14.3834 3.51666Z" fill="white"/>
</svg>
