<svg width="24" height="24" viewBox="0 0 24 24" fill="none" xmlns="http://www.w3.org/2000/svg">
<path d="M12.92 12.0243L20.46 4.4843C20.715 4.2293 20.715 3.8193 20.46 3.5643C20.205 3.3093 19.795 3.3093 19.54 3.5643L12 11.1043L4.46 3.5643C4.205 3.3093 3.795 3.3093 3.54 3.5643C3.285 3.8193 3.285 4.2293 3.54 4.4843L11.08 12.0243L3.54 19.5643C3.285 19.8193 3.285 20.2293 3.54 20.4843C3.665 20.6093 3.835 20.6743 4 20.6743C4.165 20.6743 4.335 20.6093 4.46 20.4843L12 12.9443L19.52 20.4643C19.645 20.5893 19.815 20.6543 19.98 20.6543C20.145 20.6543 20.315 20.5893 20.44 20.4643C20.695 20.2093 20.695 19.7993 20.44 19.5443L12.92 12.0243Z" fill="white"/>
</svg>
