<svg preserveAspectRatio="xMidYMid meet" width="100%" height="100%" overflow="visible" style="display: block;" viewBox="0 0 39.97 39.98" fill="none" xmlns="http://www.w3.org/2000/svg">
<path id="Vector" d="M32.03 0H14.02C10.28 0 7.14 2.6 6.3 6.09C2.81 6.2 0 9.06 0 12.58V33.48C0 37.06 2.92 39.98 6.5 39.98H27.4C30.92 39.98 33.79 37.16 33.89 33.67C37.37 32.83 39.97 29.69 39.97 25.96V7.95C39.97 3.57 36.41 0 32.02 0H32.03ZM31.31 33.48C31.31 35.63 29.56 37.38 27.41 37.38H6.51C4.36 37.38 2.61 35.63 2.61 33.48V12.58C2.61 10.43 4.36 8.68 6.51 8.68H27.41C29.56 8.68 31.31 10.43 31.31 12.58V33.48ZM37.37 25.96C37.37 28.24 35.92 30.18 33.9 30.95V12.59C33.9 9.01 30.98 6.09 27.4 6.09H9.03C9.79 4.06 11.73 2.61 14.02 2.61H32.03C34.98 2.61 37.38 5.01 37.38 7.96V25.97L37.37 25.96Z" fill="var(--fill-0, #242424)"/>
</svg>
