<svg preserveAspectRatio="xMidYMid meet" width="100%" height="100%" overflow="visible" style="display: block;" viewBox="0 0 40.03 32.08" fill="none" xmlns="http://www.w3.org/2000/svg">
<g id="Vector">
<path d="M33.13 14.0703C34.2346 14.0703 35.13 13.1749 35.13 12.0703C35.13 10.9657 34.2346 10.0703 33.13 10.0703C32.0254 10.0703 31.13 10.9657 31.13 12.0703C31.13 13.1749 32.0254 14.0703 33.13 14.0703Z" fill="var(--fill-0, #242424)"/>
<path d="M36.13 6.08H29.66L28.54 2.68C28.01 1.08 26.52 0 24.84 0H15.19C13.5 0 12.01 1.08 11.49 2.68L10.37 6.08H3.9C1.75 6.08 0 7.83 0 9.98V28.18C0 30.33 1.75 32.08 3.9 32.08H36.13C38.28 32.08 40.03 30.33 40.03 28.18V9.98C40.03 7.83 38.28 6.08 36.13 6.08ZM37.43 28.19C37.43 28.91 36.85 29.49 36.13 29.49H3.91C3.19 29.49 2.61 28.91 2.61 28.19V9.99C2.61 9.27 3.19 8.69 3.91 8.69H11.32C11.88 8.69 12.38 8.33 12.55 7.8L13.96 3.51C14.14 2.98 14.63 2.62 15.19 2.62H24.84C25.4 2.62 25.9 2.98 26.07 3.51L27.48 7.8C27.66 8.33 28.15 8.69 28.71 8.69H36.12C36.84 8.69 37.42 9.27 37.42 9.99V28.19H37.43Z" fill="var(--fill-0, #242424)"/>
<path d="M10.2425 17.3094L12.0625 19.1294V18.0694C12.0625 13.6794 15.6325 10.1094 20.0225 10.1094C24.4125 10.1094 27.9825 13.6794 27.9825 18.0694C27.9825 22.4594 24.4125 26.0294 20.0225 26.0294C19.3025 26.0294 18.7225 25.4494 18.7225 24.7294C18.7225 24.0094 19.3025 23.4294 20.0225 23.4294C22.9825 23.4294 25.3825 21.0294 25.3825 18.0694C25.3825 15.1094 22.9825 12.7094 20.0225 12.7094C17.0625 12.7094 14.6625 15.1094 14.6625 18.0694V19.1294L16.4225 17.3694C16.9325 16.8594 17.7525 16.8594 18.2625 17.3694C18.7725 17.8794 18.7725 18.6994 18.2625 19.2094L14.2825 23.1894C14.0425 23.4294 13.7125 23.5694 13.3625 23.5694C13.0125 23.5694 12.6825 23.4294 12.4425 23.1894L8.40252 19.1494C7.89252 18.6394 7.89252 17.8194 8.40252 17.3094C8.91252 16.7994 9.73252 16.7994 10.2425 17.3094Z" fill="var(--fill-0, #242424)"/>
</g>
</svg>
