<svg width="19" height="18" viewBox="0 0 19 18" fill="none" xmlns="http://www.w3.org/2000/svg">
<path d="M7.51176 0.295644L0.528785 7.63114C-0.176262 8.37369 -0.176262 9.58128 0.528786 10.3163L7.53426 17.6968C7.90929 18.0869 8.52433 18.1019 8.91435 17.7343C9.11687 17.5393 9.21438 17.2843 9.21438 17.0293C9.21438 16.7893 9.12437 16.5492 8.94436 16.3542L2.88395 9.9713L17.0674 9.9713C17.6074 9.9713 18.0425 9.53627 18.0425 8.99623C18.0425 8.4562 17.6074 8.02117 17.0674 8.02117L2.85394 8.02117L8.92185 1.64574C9.28938 1.25571 9.28188 0.640668 8.88435 0.265643C8.49433 -0.101883 7.87928 -0.0868822 7.50426 0.303144L7.51176 0.295644Z" fill="white"/>
</svg>
