<svg width="24" height="24" viewBox="0 0 24 24" fill="none" xmlns="http://www.w3.org/2000/svg">
<path d="M20.3351 6.03453H16.1501C16.0801 3.80953 14.2551 2.01953 12.0101 2.01953C9.76514 2.01953 7.94014 3.80953 7.87514 6.03453H3.66514C3.30514 6.03453 3.01514 6.32453 3.01514 6.68453C3.01514 7.04453 3.30514 7.33453 3.66514 7.33453H5.00514V18.7745C5.00514 20.5645 6.30514 22.0195 7.90514 22.0195H16.1301C17.7301 22.0195 19.0301 20.5645 19.0301 18.7745V7.33453H20.3301C20.6901 7.33453 20.9801 7.04453 20.9801 6.68453C20.9801 6.32453 20.6901 6.03453 20.3301 6.03453H20.3351ZM12.0101 3.31953C13.5351 3.31953 14.7801 4.52953 14.8451 6.03453H9.17014C9.23514 4.52453 10.4801 3.31953 12.0051 3.31953H12.0101ZM17.7301 18.7745C17.7301 19.8495 17.0151 20.7195 16.1301 20.7195H7.91014C7.03014 20.7195 6.31014 19.8445 6.31014 18.7745V7.33453H17.7301V18.7745Z" fill="white"/>
<path d="M12.0201 18.02C12.3801 18.02 12.6701 17.73 12.6701 17.37V10.65C12.6701 10.29 12.3801 10 12.0201 10C11.6601 10 11.3701 10.29 11.3701 10.65V17.37C11.3701 17.73 11.6601 18.02 12.0201 18.02Z" fill="white"/>
<path d="M15.5051 18.02C15.8651 18.02 16.1551 17.73 16.1551 17.37V10.65C16.1551 10.29 15.8651 10 15.5051 10C15.1451 10 14.8551 10.29 14.8551 10.65V17.37C14.8551 17.73 15.1451 18.02 15.5051 18.02Z" fill="white"/>
<path d="M8.51512 18.02C8.87512 18.02 9.16512 17.73 9.16512 17.37V10.65C9.16512 10.29 8.87512 10 8.51512 10C8.15512 10 7.86512 10.29 7.86512 10.65V17.37C7.86512 17.73 8.15512 18.02 8.51512 18.02Z" fill="white"/>
</svg>
