<svg width="32" height="32" viewBox="0 0 32 32" fill="none" xmlns="http://www.w3.org/2000/svg">
<rect width="32" height="32" rx="4" fill="white"/>
<rect x="0.5" y="0.5" width="31" height="31" rx="3.5" stroke="black" stroke-opacity="0.1"/>
<path d="M18.42 16.6562H16.4067C16.1667 16.6562 15.9733 16.8496 15.9733 17.0896C15.9733 17.3296 16.1667 17.5229 16.4067 17.5229H18.42C18.66 17.5229 18.8533 17.3296 18.8533 17.0896C18.8533 16.8496 18.66 16.6562 18.42 16.6562Z" fill="#585858"/>
<path d="M22.2333 13.766H21.51C21.4233 13.766 21.34 13.7927 21.27 13.8394L21.0767 13.966L20.5333 12.276C20.4233 11.936 20.1567 11.6694 19.8167 11.5627C19.0433 11.316 18.2367 11.1927 17.4133 11.1927H17.41C16.5867 11.1927 15.78 11.3194 15.0067 11.5627C14.6667 11.6727 14.4 11.9394 14.29 12.276L13.7467 13.9627L13.5467 13.8294C13.4767 13.7827 13.3933 13.756 13.3067 13.756H12.5833C12.3433 13.756 12.15 13.9494 12.15 14.1894C12.15 14.4294 12.3433 14.6227 12.5833 14.6227H13.1733L13.24 14.666H13.25C13.25 14.666 13.2467 14.666 13.2433 14.666L13.2567 14.6727C13.0533 14.856 12.8933 15.0827 12.7933 15.3427C12.7933 15.3427 12.7933 15.3427 12.79 15.3427C12.66 15.6927 12.6667 15.9927 12.6667 15.9927V16.196C13.17 16.2027 13.58 16.616 13.58 17.1227C13.58 17.6294 13.17 18.0427 12.6667 18.0494V18.916C12.6667 18.916 12.6667 18.916 12.67 18.916V19.5594C12.67 20.1694 13.1667 20.6627 13.7733 20.6627H14.15C14.76 20.6627 15.2533 20.166 15.2533 19.5594V18.926H19.5467V19.5594C19.5467 20.1694 20.0433 20.6627 20.65 20.6627H21.0333C21.6433 20.6627 22.1367 20.166 22.1367 19.5594V15.9827C22.1367 15.466 21.91 15.0027 21.5567 14.6794L21.6333 14.626H22.2233C22.4633 14.626 22.6567 14.4327 22.6567 14.1927C22.6567 13.9527 22.4633 13.7594 22.2233 13.7594L22.2333 13.766ZM15.1133 12.5427C15.1367 12.4694 15.1933 12.4127 15.27 12.3894C15.9567 12.1694 16.6767 12.0594 17.41 12.0594H17.4133C18.1467 12.0594 18.8667 12.1694 19.5567 12.3894C19.63 12.4127 19.6867 12.4694 19.7133 12.5427L20.25 14.2127H14.5767L15.1167 12.5427H15.1133ZM14.39 19.566C14.39 19.696 14.2833 19.8027 14.1533 19.8027H13.7767C13.6467 19.8027 13.54 19.696 13.54 19.566V18.9327H14.3933V19.566H14.39ZM14.8233 18.066H14.1767C14.3467 17.7927 14.4467 17.4727 14.4467 17.1294C14.4467 16.496 14.1133 15.9394 13.6167 15.6227C13.7567 15.3027 14.0767 15.0794 14.4467 15.0794H20.37C20.87 15.0794 21.28 15.486 21.28 15.986H19.9867C19.7467 15.986 19.5533 16.1794 19.5533 16.4194C19.5533 16.6594 19.7467 16.8527 19.9867 16.8527H21.28V18.0627H14.8267L14.8233 18.066ZM20.6567 19.8027C20.5267 19.8027 20.42 19.696 20.42 19.566V18.9327H21.28V19.566C21.28 19.696 21.1733 19.8027 21.0433 19.8027H20.6567Z" fill="#585858"/>
<path d="M12.53 16.7666C12.53 16.7666 12.5233 16.76 12.5233 16.7566L11.3733 15.6066C11.2033 15.4366 10.93 15.4366 10.76 15.6066C10.59 15.7766 10.59 16.05 10.76 16.22L11.24 16.7H9.77C9.53 16.7 9.33667 16.8933 9.33667 17.1333C9.33667 17.3733 9.53 17.5666 9.77 17.5666H11.24L10.76 18.0466C10.59 18.2166 10.59 18.49 10.76 18.66C10.8433 18.7433 10.9567 18.7866 11.0667 18.7866C11.1767 18.7866 11.29 18.7433 11.3733 18.66L12.5233 17.51C12.7267 17.3066 12.7267 16.98 12.53 16.7733V16.7666Z" fill="#585858"/>
</svg>
