<svg width="762" height="571" viewBox="0 0 762 571" fill="none" xmlns="http://www.w3.org/2000/svg">
<path d="M449.793 401.541L560.439 425.986C569.075 428.946 573.927 429.063 582.563 425.986C612.906 317.973 613.37 257.429 582.563 149.415C576.202 144.708 571.791 142.82 560.439 142.75L449.793 156.08L447.587 156.336C464.837 252.209 464.651 305.412 447.587 401.284L449.793 401.541Z" stroke="white" stroke-opacity="0.2"/>
<path d="M46.1599 146.557L86.1124 169.397" stroke="white" stroke-opacity="0.2"/>
<path d="M746.415 209.328C717.38 154.512 690.441 138.055 628.921 127.349H538.948C534.194 109.373 527.856 100.864 507.838 89.4565H496.723C489.126 94.2954 494.742 107.55 501.174 127.349H195.74C76.9405 120.079 28.5865 132.328 4.86396 209.328C4.77075 209.632 4.70084 209.983 4.67754 210.31C-1.00842 275.506 -0.775388 312.276 4.67754 377.448C4.70084 377.846 4.79405 378.266 4.93387 378.64C31.2431 451.55 87.5434 455.337 195.763 454.94H489.009C482.904 473.687 483.09 481.471 489.009 481.121C503.108 483.762 516.507 473.897 527.879 454.94H628.944C704.074 452.719 727.144 430.979 755.177 378.804C755.434 378.313 755.62 377.776 755.69 377.238C764.918 312.323 763.986 275.553 746.835 210.357C746.742 210.006 746.602 209.656 746.439 209.352L746.415 209.328Z" stroke="white" stroke-opacity="0.2"/>
<path d="M529.719 131.33H507.746C504.403 130.401 502.973 129.449 501.152 127.002L493.451 99.9931C492.851 95.2801 493.474 93.3994 496.748 91.3601H507.746C522.871 97.8632 529.281 104.389 537.42 120.522C540.395 127.32 539.426 130.016 529.719 131.33Z" stroke="white" stroke-opacity="0.2"/>
<path d="M508.071 131.33C507.909 129.835 507.747 128.384 507.586 127.002M507.586 127.002C505.83 112.931 503.058 104.593 497.052 91.3601M507.586 127.002L538.907 128.09" stroke="white" stroke-opacity="0.2"/>
<path d="M582.665 148.46C605.663 134.776 645.355 148.273 702.862 161.839C764.058 206.445 777.413 384.822 702.862 421.615C655.022 430.621 627.47 441.147 582.665 427.182" stroke="white" stroke-opacity="0.2"/>
<path d="M46.1599 146.557C6.23288 252.993 2.81321 312.207 38.4656 416.83" stroke="white" stroke-opacity="0.2"/>
<path d="M86.1125 380.667L38.55 416.83" stroke="white" stroke-opacity="0.2"/>
<path d="M360.344 402.466L186.837 396.84C161.59 394.619 151.44 395.942 143.46 404.735L134.57 419.39C130.487 426.741 131.21 430.31 134.57 434.044L551.631 439.67C573.098 439.67 571.208 438.157 554.968 434.044C485.248 416.813 445.021 408.044 360.344 402.49V402.466Z" stroke="white" stroke-opacity="0.2"/>
<path d="M135.577 433.487C156.55 447.468 175.249 450.952 218.516 451.09H343.47M343.47 451.09H489.442M343.47 451.09L323.565 401.603" stroke="white" stroke-opacity="0.2"/>
<path d="M550.751 439.67C554.762 449.971 551.512 453.475 529.395 452.941" stroke="white" stroke-opacity="0.2"/>
<path d="M360.356 152.929L186.847 155.614C161.594 156.688 151.451 156.053 143.476 151.831L134.568 144.826C130.488 141.312 131.211 139.603 134.568 137.821L551.633 135.137C573.109 135.137 571.197 135.869 554.968 137.821C485.247 146.071 445.024 150.269 360.333 152.905L360.356 152.929Z" stroke="white" stroke-opacity="0.2"/>
<path d="M135.577 138.225C156.634 131.243 175.408 129.498 218.85 129.427H344.305M344.305 129.427H500.857M344.305 129.427L324.32 154.17" stroke="white" stroke-opacity="0.2"/>
<path d="M552.146 135.137C556.79 130.724 553.862 129.427 537.005 129.427" stroke="white" stroke-opacity="0.2"/>
<path d="M521.726 439.67H498.837C495.355 440.643 493.866 441.64 491.968 444.204L483.946 472.499C483.322 477.437 483.97 479.407 487.381 481.543H498.837C514.593 474.731 521.27 467.894 529.748 450.993C532.846 443.872 531.838 441.047 521.726 439.67Z" stroke="white" stroke-opacity="0.2"/>
<path d="M498.558 439.67C498.396 441.237 498.235 442.756 498.073 444.204M498.073 444.204C496.318 458.969 493.546 467.68 487.54 481.543M498.073 444.204L529.395 443.064" stroke="white" stroke-opacity="0.2"/>
<path d="M447.997 156.26C465.301 252.351 465.114 305.512 447.997 401.603L447.042 401.486C310.384 385.23 230.224 381.937 86.1125 380.722V170.298L447.997 156.073V156.237V156.26Z" stroke="white"/>
</svg>
