<svg width="761" height="571" viewBox="0 0 761 571" fill="none" xmlns="http://www.w3.org/2000/svg">
<g clip-path="url(#clip0_20_680)">
<path d="M20.5105 283.88L37.1502 278.321C57.1178 273.873 51.5712 305.005 29.385 308.34L16.0733 307.228C1.6522 307.228 7.35407 289.261 20.5105 283.88Z" stroke="white"/>
<path d="M723.386 240.225L739.13 237.917L745.936 245.61L747.683 277.019L746.753 277.348C730.759 278.667 721.844 277.612 705.964 273.634L705.828 273.568L721.004 246.709C722.207 243.961 722.978 242.335 723.409 240.225H723.386Z" stroke="white"/>
<path d="M342.45 157.977C337.626 161.155 337.475 162.83 341.508 165.59" stroke="white" stroke-opacity="0.2"/>
<path d="M20.9275 281.402L21.1271 281.693C36.6954 274.814 42.7941 273.85 52.175 273.85C90.2752 264.64 111.654 259.934 149.754 255.923C171.998 252.741 180.78 248.058 194.796 237.1H194.774C255.76 209.089 282.794 188.697 341.564 166.288C397.339 145.941 476.999 147.352 627.825 156.966" stroke="white"/>
<path d="M20.9275 281.402L21.1271 281.693C36.6954 274.814 42.7941 273.85 52.175 273.85C90.2752 264.64 111.654 259.934 149.754 255.923C171.998 252.741 180.78 248.058 194.796 237.1H194.774C255.76 209.089 282.794 188.697 341.564 166.288C397.339 145.941 476.999 147.352 627.825 156.966" stroke="white" stroke-opacity="0.2"/>
<path d="M21.1271 281.693L20.9275 281.402C28.0242 273.962 40.5985 262.668 55.5015 254.803C85.8176 243.598 160.177 220.293 215.176 216.708C250.283 198.781 323.622 162.254 336.041 159.565C365.249 149.862 465.489 137.246 627.825 156.966" stroke="white" stroke-opacity="0.2"/>
<path d="M718.505 373.944C729.604 292.326 592.97 240.055 568.847 380.655L576.321 375.716C585.653 397.643 595.275 407.477 620.986 419.216L621.411 419.416C628.84 422.649 637.053 424.443 645.69 424.443C677.152 424.443 702.998 400.633 705.84 370.245L706.108 370.179H709.465L718.505 373.944Z" stroke="white" stroke-opacity="0.2"/>
<path d="M64.9294 385.443L71.2568 379.225C77.8962 405.233 101.468 424.443 129.541 424.443C138.675 424.443 147.32 422.415 155.073 418.76L155.162 418.872C176.128 412.097 185.284 402.38 197.494 375.414H205.292H205.47L205.292 373.208C199.722 271.807 53.7895 257.321 57.1315 384.351L64.9294 385.465V385.443Z" stroke="white" stroke-opacity="0.2"/>
<path d="M20.5105 283.88L37.1502 278.321C57.1178 273.873 51.5712 305.005 29.385 308.34L16.0733 307.228C1.6522 307.228 7.35407 289.261 20.5105 283.88Z" stroke="white" stroke-opacity="0.2"/>
<path d="M130.321 424.443C163.419 424.443 190.25 397.6 190.25 364.488C190.25 331.376 163.419 304.533 130.321 304.533C97.2236 304.533 70.3926 331.376 70.3926 364.488C70.3926 397.6 97.2236 424.443 130.321 424.443Z" stroke="white" stroke-opacity="0.2"/>
<path d="M130.321 411.12C156.064 411.12 176.932 390.242 176.932 364.488C176.932 338.734 156.064 317.857 130.321 317.857C104.579 317.857 83.71 338.734 83.71 364.488C83.71 390.242 104.579 411.12 130.321 411.12Z" stroke="white" stroke-opacity="0.2"/>
<path d="M199.102 234.478L199.438 234.108L199.19 233.883L198.888 234.026L199.102 234.478ZM211.986 242.579L212.295 242.972L213.209 242.253L212.058 242.084L211.986 242.579ZM211.475 242.98L211.166 242.587L211.149 242.6L211.132 242.616L211.475 242.98ZM222.559 252.015V251.515H222.551L222.543 251.515L222.559 252.015ZM223.669 252.015L224.099 252.271L224.549 251.515H223.669V252.015ZM223.669 373.309V373.809H224.284L224.159 373.207L223.669 373.309ZM205.9 373.309L205.4 373.336L205.426 373.809H205.9V373.309ZM69.2053 329.287L68.763 329.053L68.7623 329.055L69.2053 329.287ZM68.9612 329.753L68.9447 330.253L69.2587 330.263L69.4042 329.985L68.9612 329.753ZM67.6282 329.709L67.6071 330.209L67.6117 330.209L67.6282 329.709ZM0.435791 318.783L0.517937 319.276L0.779136 319.232L0.889925 318.992L0.435791 318.783ZM7.09985 304.316L7.55399 304.525L7.59065 304.446L7.59806 304.358L7.09985 304.316ZM7.52661 301.299L8.01787 301.392L8.01805 301.391L7.52661 301.299ZM7.53247 301.268L8.03133 301.234L7.04103 301.176L7.53247 301.268ZM15.9856 307.677L16.0272 307.179L16.0064 307.177H15.9856V307.677ZM29.3127 308.791L29.2711 309.289L29.3293 309.294L29.3871 309.285L29.3127 308.791ZM37.0872 278.745L36.9785 278.257L36.9533 278.262L36.9288 278.27L37.0872 278.745ZM20.428 284.309L20.2696 283.835L20.254 283.84L20.2387 283.846L20.428 284.309ZM10.3518 292.553L9.90178 292.335L10.7671 292.832L10.3518 292.553ZM15.9846 285.399L16.2756 285.806L16.3093 285.781L16.3385 285.752L15.9846 285.399ZM20.427 280.948L20.2263 280.49L20.1398 280.528L20.0731 280.595L20.427 280.948ZM51.5247 273.159L51.5258 273.659L51.5843 273.659L51.6412 273.645L51.5247 273.159ZM149.258 255.354L149.31 255.851L149.319 255.85L149.328 255.849L149.258 255.354ZM194.304 236.749L194.09 236.297L194.041 236.32L193.998 236.353L194.304 236.749ZM199.102 234.478L198.766 234.848C204.235 239.818 207.497 242.425 211.913 243.073L211.986 242.579L212.058 242.084C207.989 241.486 204.941 239.108 199.438 234.108L199.102 234.478ZM211.986 242.579L211.677 242.185L211.166 242.587L211.475 242.98L211.784 243.373L212.295 242.972L211.986 242.579ZM211.475 242.98L211.132 242.616C209.159 244.47 207.847 246.048 207.28 247.382C206.993 248.058 206.881 248.709 207.007 249.317C207.136 249.935 207.498 250.443 208.036 250.851C209.076 251.639 210.845 252.099 213.222 252.346C215.626 252.597 218.746 252.638 222.575 252.515L222.559 252.015L222.543 251.515C218.73 251.638 215.662 251.595 213.326 251.352C210.964 251.106 209.442 250.662 208.639 250.053C208.255 249.762 208.057 249.45 207.986 249.113C207.914 248.767 207.964 248.33 208.201 247.773C208.681 246.644 209.859 245.185 211.817 243.344L211.475 242.98ZM222.559 252.015V252.515H223.669V252.015V251.515H222.559V252.015ZM223.669 252.015L223.24 251.759C205.174 282.07 210.863 314.244 223.18 373.411L223.669 373.309L224.159 373.207C211.819 313.93 206.27 282.184 224.099 252.271L223.669 252.015ZM223.669 373.309V372.809H205.9V373.309V373.809H223.669V373.309ZM205.9 373.309L206.399 373.282C204.11 331.56 178.18 304.457 148.571 295.811C118.965 287.165 85.6698 296.979 68.763 329.053L69.2053 329.287L69.6476 329.52C86.3037 297.921 119.079 288.24 148.291 296.77C177.5 305.3 203.135 332.045 205.4 373.336L205.9 373.309ZM69.2053 329.287L68.7623 329.055L68.5181 329.522L68.9612 329.753L69.4042 329.985L69.6484 329.518L69.2053 329.287ZM68.9612 329.753L68.9777 329.254L67.6446 329.21L67.6282 329.709L67.6117 330.209L68.9447 330.253L68.9612 329.753ZM67.6282 329.709L67.6493 329.21C50.0298 328.466 33.1524 325.757 20.7305 323.224C14.5205 321.957 9.42679 320.736 5.91398 319.826C4.15737 319.372 2.79742 318.996 1.89181 318.732C1.43826 318.599 1.102 318.496 0.888017 318.426C0.778805 318.39 0.710554 318.366 0.676296 318.352C0.650592 318.342 0.669048 318.347 0.699439 318.366C0.708904 318.371 0.732116 318.386 0.759241 318.409C0.77322 318.421 0.85341 318.488 0.899299 318.609C0.918762 318.673 0.930018 318.824 0.916353 318.908C0.888131 318.989 0.802737 319.12 0.751924 319.168C0.646293 319.256 0.536327 319.273 0.517937 319.276L0.435791 318.783L0.353645 318.29C0.33191 318.293 0.219599 318.311 0.112619 318.399C0.0611308 318.449 -0.0246892 318.58 -0.053089 318.662C-0.066932 318.746 -0.0556053 318.898 -0.0358225 318.963C0.0107036 319.086 0.0925242 319.155 0.109122 319.169C0.138865 319.194 0.165683 319.211 0.17974 319.22C0.228499 319.25 0.281081 319.271 0.305036 319.28C0.370096 319.306 0.463293 319.339 0.575843 319.376C0.805379 319.451 1.15391 319.558 1.61187 319.692C2.52929 319.959 3.8993 320.338 5.66341 320.795C9.19204 321.708 14.3027 322.934 20.5307 324.204C32.9849 326.743 49.9178 329.462 67.6071 330.209L67.6282 329.709ZM0.435791 318.783L0.889925 318.992L7.55399 304.525L7.09985 304.316L6.64572 304.107L-0.0183429 318.574L0.435791 318.783ZM7.09985 304.316L7.59806 304.358C7.66727 303.542 7.80235 302.53 8.01787 301.392L7.52661 301.299L7.03536 301.206C6.81413 302.373 6.67403 303.42 6.60164 304.274L7.09985 304.316ZM7.52661 301.299L8.01805 301.391L8.02391 301.36L7.53247 301.268L7.04103 301.176L7.03518 301.207L7.52661 301.299ZM7.53247 301.268L7.03361 301.302C7.16494 303.246 7.91714 304.985 9.41742 306.232C10.911 307.472 13.0887 308.177 15.9856 308.177V307.677V307.177C13.2427 307.177 11.3176 306.51 10.0564 305.463C8.80198 304.42 8.14755 302.955 8.03133 301.234L7.53247 301.268ZM15.9856 307.677L15.944 308.176L29.2711 309.289L29.3127 308.791L29.3544 308.292L16.0272 307.179L15.9856 307.677ZM29.3127 308.791L29.3871 309.285C40.7226 307.581 47.8099 298.781 49.5145 290.953C50.3658 287.043 49.8923 283.283 47.8146 280.773C45.7126 278.235 42.0915 277.118 36.9785 278.257L37.0872 278.745L37.1958 279.233C42.0781 278.146 45.2593 279.255 47.0444 281.411C48.8538 283.596 49.352 286.999 48.5374 290.74C46.9102 298.213 40.115 306.661 29.2384 308.296L29.3127 308.791ZM37.0872 278.745L36.9288 278.27L20.2696 283.835L20.428 284.309L20.5864 284.783L37.2456 279.219L37.0872 278.745ZM20.428 284.309L20.2387 283.846C15.8368 285.646 12.255 288.818 9.93655 292.275L10.3518 292.553L10.7671 292.832C12.9843 289.526 16.4143 286.49 20.6172 284.772L20.428 284.309ZM10.3518 292.553L10.8018 292.771C12.1335 290.021 13.9226 287.49 16.2756 285.806L15.9846 285.399L15.6936 284.992C13.1566 286.808 11.2753 289.499 9.90178 292.335L10.3518 292.553ZM15.9846 285.399L16.3385 285.752L20.7809 281.301L20.427 280.948L20.0731 280.595L15.6307 285.046L15.9846 285.399ZM20.427 280.948L20.6277 281.406C28.4129 277.994 33.8064 276.066 38.4139 274.986C43.0136 273.908 46.848 273.67 51.5258 273.659L51.5247 273.159L51.5235 272.659C46.8055 272.67 42.8876 272.91 38.1856 274.013C33.4916 275.113 28.0341 277.069 20.2263 280.49L20.427 280.948ZM51.5247 273.159L51.6412 273.645C89.7927 264.5 111.181 259.832 149.31 255.851L149.258 255.354L149.206 254.857C111.014 258.844 89.5774 263.523 51.4081 272.672L51.5247 273.159ZM149.258 255.354L149.328 255.849C160.501 254.266 168.296 252.332 175.069 249.415C181.843 246.497 187.569 242.605 194.61 237.144L194.304 236.749L193.998 236.353C186.979 241.797 181.332 245.628 174.673 248.496C168.014 251.365 160.316 253.282 149.188 254.859L149.258 255.354ZM194.304 236.749L194.518 237.2L199.316 234.93L199.102 234.478L198.888 234.026L194.09 236.297L194.304 236.749Z" fill="white"/>
<path d="M645.899 411.12C671.642 411.12 692.51 390.242 692.51 364.488C692.51 338.734 671.642 317.857 645.899 317.857C620.156 317.857 599.288 338.734 599.288 364.488C599.288 390.242 620.156 411.12 645.899 411.12Z" stroke="white" stroke-opacity="0.2"/>
<path d="M645.899 424.443C678.996 424.443 705.827 397.6 705.827 364.488C705.827 331.376 678.996 304.533 645.899 304.533C612.801 304.533 585.97 331.376 585.97 364.488C585.97 397.6 612.801 424.443 645.899 424.443Z" stroke="white" stroke-opacity="0.2"/>
<path d="M193.145 237.917C185.548 228.22 193.145 223.966 213.08 216.98" stroke="white" stroke-opacity="0.2"/>
<path d="M68.49 329.007C33.191 327.495 -0.220906 317.069 0.00110018 317.904C0.223106 318.739 2.22116 326.931 2.22116 326.931L4.44122 347.24L11.1014 367.549C23.5338 379.283 47.355 383.729 57.7227 384.473C57.1233 361.524 61.2748 343.155 68.49 329.007Z" stroke="white"/>
<path d="M637.534 229.173C645.302 223.673 626.435 163.18 583.153 163.18L457.744 159.88C400.033 161.156 368.049 164.147 313.468 185.177L223.544 234.11C203.434 248.474 202.331 251.83 222.463 251.17L441.096 236.872L637.534 229.173Z" stroke="white"/>
<path d="M283.015 247.458L262.077 248.385C242.385 243.548 243.185 233.693 259.855 225.781C270.746 220.605 278.303 219.791 282.259 219.837C284.171 219.859 285.526 221.442 285.682 223.363L287.26 242.576C287.482 245.13 285.549 247.345 283.015 247.458Z" stroke="white"/>
<path d="M443.282 237.917L456.6 159.88" stroke="white"/>
<path d="M638.289 229.352C638.289 229.352 589.513 304.877 553.628 352.117C541.975 366.688 530.797 369.842 510.317 369.247L435.673 370.198L434.298 368.078C427.235 335.453 437.39 266.725 443.283 236.965L638.289 229.352Z" stroke="white"/>
<path d="M723.386 240.225L739.13 237.917L745.936 245.61L747.683 277.019L746.753 277.348C730.759 278.667 721.844 277.612 705.964 273.634L705.828 273.568L721.004 246.709C722.207 243.961 722.978 242.335 723.409 240.225H723.386Z" stroke="white" stroke-opacity="0.2"/>
<path d="M553.627 352.117C541.889 367.057 530.684 369.679 510.053 369.068L223.256 373.589H205.47L206.582 388.28L568.847 382.57C556.664 371.495 553.627 352.117 553.627 352.117Z" stroke="white"/>
<path d="M692.194 183.729C692.194 183.729 625.431 163.846 584.067 162.735C626.903 162.735 645.91 224.723 638.221 230.278V230.345C638.221 230.345 589.323 304.936 553.627 352.552C553.627 352.552 556.044 371.683 568.104 382.57H570.102C585.15 289.071 647.821 278.783 686.57 306.024H686.592L686.724 305.824C703.594 278.383 705.901 274.162 705.901 274.162L720.597 247.01C721.761 244.232 722.508 242.588 722.925 240.455L738.17 238.122L692.216 183.729H692.194Z" stroke="white"/>
<path d="M686.936 305.802L686.936 305.825M686.936 305.825C707.907 320.372 721.651 345.767 717.772 374.928C733.733 375.819 748.807 355.992 754.35 345.968L756.566 333.715L761 302.528C752.133 296.29 748.431 289.54 747.699 286.934L747.211 277.667V277.578L746.28 277.912C730.652 279.248 721.939 278.179 706.422 274.147L706.289 274.08C706.289 274.08 703.961 278.313 686.936 305.825Z" stroke="white"/>
<path d="M583.221 162.893L457.41 159.587C399.514 160.865 367.427 163.863 312.671 184.931L224.495 233.158C220.019 236.354 213.671 240.449 211.177 242.675C206.924 242.058 205.263 239.046 199.762 234.11C257.702 207.664 283.033 187.686 340.505 166.221C401.251 144.491 490.188 147.951 667.838 159.587H668.951L680.085 168.402L692.51 183.672C692.51 183.672 625.151 163.995 583.221 162.893Z" stroke="white"/>
<path d="M224.495 251.24C206.402 281.214 211.116 314.103 223.544 373.053L434.258 369.819L434.326 368.623C427.16 335.835 437.304 266.872 443.282 236.965L224.495 251.24Z" stroke="white"/>
</g>
<defs>
<clipPath id="clip0_20_680">
<rect width="761" height="571" fill="white"/>
</clipPath>
</defs>
</svg>
