<svg width="761" height="573" viewBox="0 0 761 573" fill="none" xmlns="http://www.w3.org/2000/svg">
<path d="M186.527 6.30322L174.62 36.7566C331.381 24.2707 419.287 24.9813 576.047 36.7566L547.131 6.30322" stroke="white" stroke-opacity="0.2" stroke-width="1.18644"/>
<path d="M121.277 568.169L68.4397 571.587C31.658 571.997 26.1697 551.49 22.4199 506.647V344.296C39.5666 262.642 77.2687 176.237 114.46 101.624L158.775 26.4294C168.286 20.1062 174.899 15.3211 187.75 5.92187C328.196 -1.35829 406.941 -1.0165 547.387 5.95605L583.18 26.4636L636.017 101.658L697.377 222.994C714.899 271.699 725.262 299.145 734.875 346.039L738.284 419.524C747.828 482.414 734.295 533.443 726.353 551.114C717.387 561.47 709.888 563.897 693.968 564.786H630.904C618.121 563.282 614.03 558.702 610.451 545.987L603.633 513.517L146.844 518.644L141.731 552.823C138.867 563.726 134.47 567.178 121.277 568.204V568.169Z" stroke="white" stroke-opacity="0.2" stroke-width="1.18644"/>
<path d="M78.7104 215.67L206.467 234.47C243.704 261.201 251.539 273.37 206.467 282.325L133.22 299.417C98.4019 297.673 79.3918 299.553 43.3474 284.274C43.3474 284.274 53.5339 254.364 78.7104 215.67Z" stroke="white" stroke-opacity="0.2" stroke-width="1.18644"/>
<path d="M160.131 61.5345L90.9099 194.835C319.626 205.238 446.53 204.456 671.172 194.835L590.62 59.5967C415.823 90.4315 160.096 61.5345 160.096 61.5345H160.131Z" stroke="white" stroke-opacity="0.2" stroke-width="1.18644"/>
<path d="M682.465 215.67L553.907 234.47C516.437 261.201 508.552 273.37 553.907 282.325L627.613 299.417C662.65 297.673 678.659 300.237 714.93 284.957C708.553 259.218 682.465 215.67 682.465 215.67Z" stroke="white" stroke-opacity="0.2" stroke-width="1.18644"/>
<path d="M132.257 299.986L205.712 282.731C250.912 273.69 243.054 261.405 205.712 234.419L77.695 215.508L77.5925 215.439C82.2731 208.123 85.7238 202.498 91.2586 194.733C319.515 205.293 446.165 204.499 670.356 194.733C673.397 199.599 678.249 208.399 682.588 215.439L554.469 234.419C517.126 261.405 509.268 273.69 554.469 282.731L627.923 299.986C630.178 299.882 632.399 299.779 634.517 299.675H634.722L634.586 300.193L631.067 331.044C625.019 361.205 609.987 372.593 554.195 379.357H217.669C164.713 377.769 141.447 371.592 135.673 331.044L131.983 300.02H132.257" stroke="white" stroke-width="1.18644"/>
<path d="M714.535 284.838C680.825 299.072 664.704 297.809 634.341 299.004L634.204 299.515L630.686 330.03C624.641 359.862 609.613 373.029 553.839 379.719H217.418C164.478 378.149 141.219 370.136 135.447 330.03L131.758 299.345H132.032C97.1259 297.57 78.0678 299.447 41.9324 284.19H41.4201C34.6575 300.71 28.1682 319.381 20.5176 341.942V413.621L41.0102 495.539C54.2963 517.179 68.1971 518.101 99.0727 509.192C136.062 492.058 160.107 489.907 204.951 490.419H566.988C611.252 488.815 632.462 487.484 662.62 504.072C692.745 508.885 705.143 511.104 718.975 495.539L737.76 413.621L734.345 341.942C726.831 319.756 720.649 301.188 714.535 284.838Z" stroke="white" stroke-width="1.18644"/>
<path d="M174.214 36.6534C331.608 23.737 419.869 24.4721 577.263 36.6534L591.267 60.8762L590.858 60.1761C416.453 91.9246 161.302 62.1713 161.302 62.1713L174.214 36.6534Z" stroke="white" stroke-width="1.18644"/>
<path d="M111.838 101.47C69.4233 101.47 49.0645 138.242 91.4787 145.246" stroke="white" stroke-opacity="0.2" stroke-width="1.18644"/>
<path d="M638.83 101.47C681.244 101.47 701.603 138.242 659.189 145.246" stroke="white" stroke-opacity="0.2" stroke-width="1.18644"/>
</svg>
