<svg width="763" height="571" viewBox="0 0 763 571" fill="none" xmlns="http://www.w3.org/2000/svg">
<path d="M754.435 437.454C750.948 456.724 742.713 468.099 726.116 476.509C715.879 481.729 713.425 482.18 677.065 485.628C654.397 487.787 638.413 489.012 616.939 489.785L620.556 501.901C623.139 510.827 628.79 523.781 631.341 526.552C634.376 529.871 642.998 533.061 651.103 533.867C655.398 534.286 671.996 534.511 687.948 534.318C716.493 533.996 721.24 533.964 729.248 531.064C735.965 528.615 737.934 527.358 740.55 523.684C747.783 513.534 753.143 490.462 755.081 468.647C756.534 458.303 755.533 438.389 754.758 437.357C754.693 437.261 754.564 437.357 754.435 437.486V437.454Z" stroke="white" stroke-opacity="0.2"/>
<path d="M52.8458 482.082C44.5977 480.579 35.5151 477.382 30.1876 474.089C16.8045 462.834 11.2523 450.236 11.2523 450.236C10.2573 448.989 9.19825 444.225 8.13916 437.318V452.026C8.13916 458.645 12.5039 495.767 14.9751 504.944C17.3822 513.801 21.2976 521.89 25.4698 526.495C27.6843 528.957 38.1147 533.017 44.9828 534.105C46.8442 534.392 62.9232 534.488 80.6711 534.264C111.224 533.913 113.31 533.753 118.991 531.323C124.479 528.957 125.346 528.061 128.748 521.219C132.182 514.28 134.942 505.072 136.675 494.616L137.509 489.564C107.116 487.646 62.2172 483.777 52.7495 482.082H52.8458Z" stroke="white" stroke-opacity="0.2"/>
<path d="M122.78 153.798C134.453 153.638 187.388 151.969 236.816 151.199C333.616 149.691 563.394 151.424 605.523 153.285C618.161 153.862 638.036 154.312 646.815 154.472C646.815 154.472 653.408 156.461 656.141 157.488C656.624 157.681 657.074 157.135 656.817 156.686C653.665 151.552 638.293 133.519 638.293 133.519C613.498 96.0723 584.169 64.7225 574.103 54.7432L560.564 44.3468C553.811 40.2717 546.124 38.0576 538.245 37.9292C505.572 37.3196 414.143 35.6831 363.106 35.7152C305.477 35.7473 197.325 39.9187 192.726 40.3037C187.323 40.753 182.242 43.0312 178.287 46.7213L167.545 56.7969C156.515 69.0223 142.429 88.7563 119.532 124.149C111.267 136.92 105.092 146.45 101.362 152.611L122.715 153.798H122.78Z" stroke="white" stroke-opacity="0.2"/>
<path d="M657.311 158.04C657.311 159.062 669.77 171.545 679.901 182.271L680.95 182.144C684.753 181.729 691.573 180.196 696.097 178.728C706.982 175.216 712.064 170.331 712.064 163.404C712.064 154.369 708.687 145.206 703.999 141.439C698.556 137.097 686.36 132.788 669.278 129.148C658.13 126.786 655.18 126.562 652.196 127.871C649.213 129.148 643.442 134.927 641.672 137.991C646.524 143.642 654.589 153.188 656.786 156.699L657.311 158.008V158.04Z" stroke="white"/>
<path d="M79.2743 181.703C81.0771 178.876 83.142 175.823 85.6003 172.417L101.169 153.491H101.628H101.366C102.874 151.049 104.775 148.029 107.069 144.526C106.414 140.028 99.0061 131.77 92.9424 129.521C90.0908 128.46 85.8953 128.878 73.5711 131.449C43.5474 137.65 36.3365 142.052 32.5671 156.448C30.4366 164.513 30.4366 165.22 32.5671 169.59C35.3204 175.245 42.0397 178.458 58.0676 181.768C70.3262 184.306 74.4233 185.624 79.2743 181.671V181.703Z" stroke="white"/>
<path d="M621.791 253.087C648.252 238.623 657.962 236.397 676.931 231.374C680.564 230.738 685.676 229.689 688.281 229.085L693.039 227.973V217.1C691.978 205.465 694.55 199.742 682.429 186.486C672.173 175.263 657.318 160.29 657.318 159.145C657.318 158.796 646.805 155.648 646.805 155.648C638.027 155.489 618.19 155.044 605.522 154.472C563.371 152.596 333.678 150.88 236.901 152.406C187.451 153.169 134.561 154.822 122.89 154.981L101.348 153.804L86.0762 172.529C71.0291 193.384 66.6226 205.56 71.4933 226.497L83.6969 229.276C89.3235 230.262 99.2584 232.868 105.785 235.062C116.01 238.495 146.072 251.085 160.379 258.46L165.073 260.876L603.721 262.211L621.791 253.119V253.087Z" stroke="white"/>
<path d="M761.063 347.777L760.225 325.095C757.936 298.45 755.485 288.978 742.588 257.307C736.881 243.259 732.27 236.654 714.633 216.936L688.548 193.61C694.029 202.277 692.578 207.851 693.449 217.226V228.245L688.677 229.373C686.065 229.985 680.938 231.048 677.295 231.693C658.303 236.783 648.533 239.039 621.997 253.698L603.876 262.913L163.977 261.56L159.269 259.111C144.921 251.636 114.773 238.878 104.52 235.398C97.9743 233.175 88.011 230.565 82.3684 229.534L70.8897 227.279L70.2448 220.738C68.6004 204.274 70.3169 196.185 80.0545 180.817L60.2815 200.183C56.638 204.725 47.2873 214.391 40.9676 221.673C28.4571 236.042 24.6524 236.977 17.1396 255.76C5.27397 285.466 2.27531 299.288 1.69493 326.964L0.53416 344.555H0.566403C0.469672 348.357 0.566403 356.315 0.792108 365.498C1.66269 396.686 6.24127 445.787 9.75582 450.169C9.75582 450.169 15.334 462.863 28.7795 474.204C34.132 477.523 43.2569 480.777 51.5435 482.259C63.0222 484.353 125.962 489.573 153.111 490.7C198.316 492.569 391.455 493.117 537.777 491.764C615.129 491.055 634.153 490.282 677.004 486.222C713.311 482.775 715.761 482.324 725.982 477.104C742.846 468.534 751.1 456.903 754.454 436.959C759.161 409.058 762.869 359.118 761.063 347.81V347.777ZM164.074 299.256C160.269 309.211 149.532 316.138 133.507 319.006C116.611 322.002 91.719 320.166 63.4736 313.819C37.0017 307.858 29.6501 302.027 29.6501 286.884C29.6501 271.741 37.0984 251.991 45.9009 244.065C52.5108 238.104 57.4118 237.202 68.3424 240.005C89.204 245.354 144.76 270.001 156.109 278.958C160.269 282.244 162.655 285.208 164.041 288.913C165.944 293.875 165.944 294.455 164.106 299.288L164.074 299.256ZM698.575 315.14C692.933 316.461 682.744 318.297 675.973 319.199C635.152 324.612 607.294 314.882 605.391 294.487C604.424 284.21 612.195 276.992 637.538 264.524C656.078 255.406 688.128 241.874 695.512 240.07C705.475 237.621 706.443 237.589 711.15 239.683C721.307 244.161 730.883 262.462 733.56 282.534C736.139 301.737 729.561 307.858 698.543 315.172L698.575 315.14Z" stroke="white"/>
</svg>
