<svg width="761" height="571" viewBox="0 0 761 571" fill="none" xmlns="http://www.w3.org/2000/svg">
<g clip-path="url(#clip0_10_188)">
<path d="M740.49 283.88L723.85 278.321C703.882 273.873 709.429 305.005 731.615 308.34L744.927 307.228C759.348 307.228 753.646 289.261 740.49 283.88Z" stroke="white"/>
<path d="M37.6138 240.225L21.87 237.917L15.0643 245.61L13.3175 277.019L14.2476 277.348C30.241 278.667 39.1564 277.612 55.0364 273.634L55.1725 273.568L39.9958 246.709C38.7934 243.961 38.0221 242.335 37.5911 240.225H37.6138Z" stroke="white"/>
<path d="M418.55 157.977C423.374 161.155 423.525 162.83 419.492 165.59" stroke="white" stroke-opacity="0.2"/>
<path d="M567.562 235.824C581.622 246.628 590.431 251.246 612.745 254.383C650.964 258.337 672.41 262.977 710.63 272.057C720.04 272.057 726.158 273.007 741.775 279.79L741.975 279.503C734.856 272.168 722.242 261.033 707.293 253.278C676.882 242.231 602.289 219.255 547.117 215.72C511.901 198.045 438.331 162.033 425.873 159.382C396.575 149.815 296.02 137.377 133.175 156.819C284.474 147.341 364.384 145.949 420.334 166.01C479.287 188.103 506.406 208.208 567.584 235.824H567.562Z" stroke="white"/>
<path d="M567.562 235.824C581.622 246.628 590.431 251.246 612.745 254.383C650.964 258.337 672.41 262.977 710.63 272.057C720.04 272.057 726.158 273.007 741.775 279.79L741.975 279.503C734.856 272.168 722.242 261.033 707.293 253.278C676.882 242.231 602.289 219.255 547.117 215.72C511.901 198.045 438.331 162.033 425.873 159.382C396.575 149.815 296.02 137.377 133.175 156.819C284.474 147.341 364.384 145.949 420.334 166.01C479.287 188.103 506.406 208.208 567.584 235.824H567.562Z" stroke="white" stroke-opacity="0.2"/>
<path d="M42.4949 373.944C31.3959 292.326 168.03 240.055 192.152 380.655L184.679 375.716C175.347 397.643 165.725 407.477 140.014 419.216L139.589 419.416C132.16 422.649 123.947 424.443 115.31 424.443C83.8477 424.443 58.0022 400.633 55.1603 370.245L54.8918 370.179H51.5352L42.4949 373.944Z" stroke="white" stroke-opacity="0.2"/>
<path d="M696.071 385.443L689.743 379.225C683.104 405.233 659.532 424.443 631.459 424.443C622.325 424.443 613.68 422.415 605.927 418.76L605.838 418.872C584.872 412.097 575.716 402.38 563.506 375.414H555.708H555.53L555.708 373.208C561.278 271.807 707.21 257.321 703.869 384.351L696.071 385.465V385.443Z" stroke="white" stroke-opacity="0.2"/>
<path d="M740.49 283.88L723.85 278.321C703.882 273.873 709.429 305.005 731.615 308.34L744.927 307.228C759.348 307.228 753.646 289.261 740.49 283.88Z" stroke="white" stroke-opacity="0.2"/>
<path d="M630.679 424.443C597.581 424.443 570.75 397.601 570.75 364.488C570.75 331.376 597.581 304.533 630.679 304.533C663.776 304.533 690.607 331.376 690.607 364.488C690.607 397.601 663.776 424.443 630.679 424.443Z" stroke="white" stroke-opacity="0.2"/>
<path d="M630.679 411.12C604.936 411.12 584.068 390.242 584.068 364.488C584.068 338.734 604.936 317.857 630.679 317.857C656.421 317.857 677.29 338.734 677.29 364.488C677.29 390.242 656.421 411.12 630.679 411.12Z" stroke="white" stroke-opacity="0.2"/>
<path d="M562.084 234.224L561.748 233.854L561.995 233.629L562.298 233.772L562.084 234.224ZM549.196 242.328L548.888 242.721L547.971 242.002L549.124 241.833L549.196 242.328ZM549.708 242.729L550.017 242.336L550.034 242.349L550.05 242.365L549.708 242.729ZM538.62 251.767V251.267H538.628L538.636 251.267L538.62 251.767ZM537.509 251.767L537.079 252.023L536.629 251.267H537.509V251.767ZM537.509 373.101V373.601H536.894L537.019 372.999L537.509 373.101ZM555.285 373.101L555.784 373.128L555.758 373.601H555.285V373.101ZM692.024 329.065L692.467 328.832L692.467 328.833L692.024 329.065ZM692.269 329.531L692.285 330.03L691.971 330.041L691.826 329.763L692.269 329.531ZM693.602 329.488L693.623 329.987L693.618 329.987L693.602 329.488ZM760.816 318.556L760.737 319.05L760.474 319.007L760.362 318.765L760.816 318.556ZM754.15 304.085L753.696 304.295L753.66 304.215L753.652 304.128L754.15 304.085ZM753.718 301.039L753.219 301.006L754.209 300.946L753.718 301.039ZM745.262 307.448L745.22 306.949L745.241 306.948H745.262V307.448ZM731.93 308.561L731.971 309.059L731.913 309.064L731.855 309.055L731.93 308.561ZM724.153 278.505L724.262 278.017L724.287 278.023L724.312 278.031L724.153 278.505ZM740.817 284.072L740.976 283.597L740.991 283.603L741.007 283.609L740.817 284.072ZM750.897 292.319L751.347 292.101L750.482 292.597L750.897 292.319ZM745.263 285.162L744.972 285.568L744.938 285.544L744.909 285.515L745.263 285.162ZM740.818 280.709L741.019 280.251L741.106 280.289L741.172 280.356L740.818 280.709ZM709.711 272.917L709.71 273.417L709.651 273.417L709.594 273.404L709.711 272.917ZM611.945 255.107L611.893 255.604L611.884 255.603L611.875 255.602L611.945 255.107ZM566.884 236.495L567.098 236.043L567.147 236.066L567.19 236.099L566.884 236.495ZM562.084 234.224L562.42 234.594C556.949 239.566 553.686 242.173 549.269 242.822L549.196 242.328L549.124 241.833C553.194 241.235 556.243 238.856 561.748 233.854L562.084 234.224ZM549.196 242.328L549.505 241.934L550.017 242.336L549.708 242.729L549.399 243.122L548.888 242.721L549.196 242.328ZM549.708 242.729L550.05 242.365C552.024 244.219 553.337 245.798 553.904 247.133C554.191 247.808 554.303 248.459 554.176 249.068C554.048 249.686 553.686 250.195 553.148 250.602C552.107 251.39 550.338 251.85 547.96 252.098C545.556 252.349 542.434 252.389 538.604 252.267L538.62 251.767L538.636 251.267C542.45 251.389 545.519 251.347 547.856 251.104C550.219 250.857 551.741 250.413 552.544 249.805C552.929 249.514 553.127 249.201 553.197 248.864C553.27 248.517 553.22 248.08 552.983 247.524C552.503 246.394 551.325 244.934 549.366 243.093L549.708 242.729ZM538.62 251.767V252.267H537.509V251.767V251.267H538.62V251.767ZM537.509 251.767L537.938 251.511C556.01 281.832 550.319 314.016 537.998 373.203L537.509 373.101L537.019 372.999C549.363 313.702 554.914 281.946 537.079 252.023L537.509 251.767ZM537.509 373.101V372.601H555.285V373.101V373.601H537.509V373.101ZM555.285 373.101L554.786 373.074C557.075 331.338 583.014 304.226 612.633 295.577C642.248 286.929 675.554 296.747 692.467 328.832L692.024 329.065L691.582 329.298C674.921 297.689 642.135 288.004 612.913 296.537C583.694 305.069 558.05 331.823 555.784 373.128L555.285 373.101ZM692.024 329.065L692.467 328.833L692.711 329.299L692.269 329.531L691.826 329.763L691.582 329.297L692.024 329.065ZM692.269 329.531L692.252 329.031L693.585 328.988L693.602 329.488L693.618 329.987L692.285 330.03L692.269 329.531ZM693.602 329.488L693.58 328.988C711.207 328.244 728.091 325.533 740.518 322.999C746.73 321.732 751.825 320.509 755.339 319.6C757.096 319.145 758.456 318.769 759.361 318.505C759.815 318.372 760.151 318.269 760.365 318.199C760.474 318.163 760.542 318.139 760.576 318.125C760.602 318.115 760.583 318.121 760.552 318.139C760.543 318.145 760.519 318.16 760.491 318.184C760.477 318.196 760.395 318.265 760.35 318.39C760.331 318.456 760.323 318.61 760.339 318.694C760.369 318.773 760.456 318.901 760.507 318.947C760.611 319.031 760.718 319.047 760.737 319.05L760.816 318.556L760.896 318.062C760.918 318.066 761.027 318.083 761.133 318.167C761.184 318.215 761.272 318.342 761.302 318.423C761.318 318.507 761.31 318.662 761.291 318.729C761.245 318.855 761.162 318.926 761.145 318.941C761.115 318.967 761.088 318.984 761.073 318.993C761.024 319.023 760.971 319.044 760.948 319.054C760.883 319.08 760.79 319.112 760.677 319.149C760.448 319.224 760.099 319.331 759.641 319.465C758.724 319.732 757.354 320.111 755.589 320.568C752.06 321.482 746.948 322.708 740.717 323.979C728.259 326.52 711.319 329.24 693.623 329.987L693.602 329.488ZM760.816 318.556L760.362 318.765L753.696 304.295L754.15 304.085L754.605 303.876L761.271 318.347L760.816 318.556ZM754.15 304.085L753.652 304.128C753.582 303.305 753.445 302.282 753.227 301.133L753.718 301.039L754.209 300.946C754.433 302.125 754.576 303.183 754.649 304.043L754.15 304.085ZM753.718 301.039L754.217 301.073C754.085 303.018 753.332 304.757 751.831 306.003C750.337 307.243 748.159 307.948 745.262 307.948V307.448V306.948C748.005 306.948 749.93 306.281 751.192 305.233C752.447 304.191 753.102 302.726 753.219 301.006L753.718 301.039ZM745.262 307.448L745.303 307.946L731.971 309.059L731.93 308.561L731.888 308.063L745.22 306.949L745.262 307.448ZM731.93 308.561L731.855 309.055C720.516 307.351 713.427 298.548 711.722 290.717C710.87 286.807 711.344 283.045 713.422 280.535C715.525 277.995 719.147 276.878 724.262 278.017L724.153 278.505L724.045 278.993C719.161 277.906 715.978 279.016 714.192 281.172C712.382 283.358 711.884 286.763 712.699 290.505C714.326 297.98 721.124 306.431 732.004 308.067L731.93 308.561ZM724.153 278.505L724.312 278.031L740.976 283.597L740.817 284.072L740.659 284.546L723.995 278.98L724.153 278.505ZM740.817 284.072L741.007 283.609C745.41 285.409 748.993 288.582 751.313 292.04L750.897 292.319L750.482 292.597C748.264 289.29 744.833 286.254 740.628 284.535L740.817 284.072ZM750.897 292.319L750.447 292.537C749.115 289.785 747.326 287.253 744.972 285.568L745.263 285.162L745.554 284.755C748.092 286.571 749.974 289.263 751.347 292.101L750.897 292.319ZM745.263 285.162L744.909 285.515L740.464 281.063L740.818 280.709L741.172 280.356L745.617 284.808L745.263 285.162ZM740.818 280.709L740.618 281.167C732.83 277.755 727.435 275.826 722.826 274.746C718.225 273.667 714.389 273.429 709.71 273.417L709.711 272.917L709.712 272.417C714.432 272.429 718.351 272.669 723.054 273.772C727.75 274.873 733.209 276.829 741.019 280.251L740.818 280.709ZM709.711 272.917L709.594 273.404C671.43 264.256 650.035 259.586 611.893 255.604L611.945 255.107L611.997 254.61C650.202 258.598 671.645 263.279 709.827 272.431L709.711 272.917ZM611.945 255.107L611.875 255.602C600.699 254.018 592.901 252.084 586.125 249.165C579.349 246.246 573.621 242.353 566.577 236.89L566.884 236.495L567.19 236.099C574.211 241.545 579.86 245.377 586.521 248.247C593.183 251.117 600.884 253.034 612.015 254.612L611.945 255.107ZM566.884 236.495L566.67 236.947L561.87 234.676L562.084 234.224L562.298 233.772L567.098 236.043L566.884 236.495Z" fill="white"/>
<path d="M115.101 411.12C89.3586 411.12 68.49 390.242 68.49 364.488C68.49 338.734 89.3586 317.857 115.101 317.857C140.844 317.857 161.713 338.734 161.713 364.488C161.713 390.242 140.844 411.12 115.101 411.12Z" stroke="white" stroke-opacity="0.2"/>
<path d="M115.101 424.443C82.0035 424.443 55.1725 397.601 55.1725 364.488C55.1725 331.376 82.0035 304.533 115.101 304.533C148.199 304.533 175.03 331.376 175.03 364.488C175.03 397.601 148.199 424.443 115.101 424.443Z" stroke="white" stroke-opacity="0.2"/>
<path d="M567.855 237.917C575.452 228.22 567.855 223.966 547.92 216.98" stroke="white" stroke-opacity="0.2"/>
<path d="M692.51 329.007C727.809 327.495 761.221 317.069 760.999 317.904C760.777 318.739 758.779 326.931 758.779 326.931L756.559 347.24L749.899 367.549C737.466 379.283 713.645 383.729 703.277 384.473C703.877 361.524 699.725 343.155 692.51 329.007Z" stroke="white"/>
<path d="M123.466 229.173C115.698 223.673 134.564 163.18 177.847 163.18L303.256 159.88C360.966 161.156 392.951 164.148 447.532 185.177L538.537 233.572C558.647 247.937 558.669 251.83 538.537 251.17L319.903 236.872L123.466 229.173Z" stroke="white"/>
<path d="M477.985 246.568L498.923 247.433C518.615 242.919 517.815 233.721 501.145 226.337C490.254 221.506 482.697 220.746 478.741 220.788C476.829 220.809 475.474 222.286 475.318 224.079L473.74 242.012C473.518 244.395 475.451 246.463 477.985 246.568Z" stroke="white"/>
<path d="M319.62 237.917L304.4 159.88" stroke="white"/>
<path d="M123.663 230.303C123.663 230.303 173.2 304.305 209.417 351.545C221.178 366.116 231.067 368.674 251.738 368.078L328.159 369.247H328.649L328.583 368.078C335.71 335.453 325.62 267.778 319.673 238.019L123.663 230.303Z" stroke="white"/>
<path d="M37.6138 240.225L21.87 237.917L15.0643 245.61L13.3175 277.019L14.2476 277.348C30.241 278.667 39.1564 277.612 55.0364 273.634L55.1725 273.568L39.9958 246.709C38.7934 243.961 38.0221 242.335 37.5911 240.225H37.6138Z" stroke="white" stroke-opacity="0.2"/>
<path d="M208.706 352.117C220.445 367.057 230.316 369.679 250.947 369.068L537.744 373.589H555.53L554.418 388.28L194.055 382.652C206.238 371.577 208.706 352.117 208.706 352.117Z" stroke="white"/>
<path d="M69.2804 182C69.2804 182 136.415 162.904 178.205 161.783C134.928 161.783 116.041 223.351 123.809 228.954V229.021C123.809 229.021 173.211 304.26 209.275 352.291C209.275 352.291 206.834 371.588 194.65 382.57H192.63C177.428 288.258 114.111 277.881 74.9619 305.359H74.9397L74.8065 305.157C57.7621 277.477 55.4318 273.219 55.4318 273.219L40.5846 245.831C39.4083 243.029 38.6538 241.371 38.2321 239.219L22.83 236.866L69.2582 182H69.2804Z" stroke="white"/>
<path d="M74.0645 305.802L74.1975 305.981C53.2262 320.527 39.3488 345.767 43.2283 374.928C27.2671 375.819 12.1926 355.992 6.65051 345.968L4.43368 333.715L6.95462e-06 302.528C8.86735 296.29 12.5695 289.54 13.301 286.934L13.7887 277.667V277.577L14.7198 277.912C30.3485 279.248 39.0606 278.179 54.5785 274.147L54.7115 274.08C54.7115 274.08 57.0392 278.313 74.0645 305.825V305.802Z" stroke="white"/>
<path d="M177.779 162.893L303.59 159.587C361.486 160.865 393.573 163.863 448.329 184.931L539.626 233.415C544.101 236.611 547.597 239.299 550.091 241.525L550.225 241.723C554.478 241.106 557.64 238.66 563.14 233.724C505.2 207.278 477.967 187.686 420.494 166.221C359.749 144.491 270.812 147.951 93.1624 159.587H92.049L80.9152 168.403L68.49 182.771C68.49 182.771 135.849 163.995 177.779 162.893Z" stroke="white"/>
<path d="M538.375 252.316C556.32 282.29 550.701 314.103 538.375 373.053L328.57 369.819L328.503 368.623C335.61 335.835 325.55 267.824 319.62 237.917H320.73L538.375 252.316Z" stroke="white"/>
</g>
<defs>
<clipPath id="clip0_10_188">
<rect width="761" height="571" fill="white"/>
</clipPath>
</defs>
</svg>
